<?xml version="1.0" ?><!DOCTYPE svg  PUBLIC '-//W3C//DTD SVG 1.1//EN'  'http://www.w3.org/Graphics/SVG/1.1/DTD/svg11.dtd'><svg enable-background="new -243.333 -5 1024 1024" height="1024px" version="1.1" viewBox="-243.333 -5 1024 1024" width="1024px" xml:space="preserve" xmlns="http://www.w3.org/2000/svg" xmlns:xlink="http://www.w3.org/1999/xlink"><defs/><path d="M18,139.668c0,1.104-0.896,1.999-2,1.999H2c-1.104,0-2-0.895-2-1.999V96.082c0-1.104,0.896-1.999,2-1.999h14  c1.104,0,2,0.895,2,1.999V139.668z" fill="#464644"/><path d="M19,139.287c0,1.084-0.92,1.963-2.056,1.963H2.556c-1.135,0-2.056-0.879-2.056-1.963V96.464  c0-1.084,0.92-1.964,2.056-1.964h14.389C18.08,94.5,19,95.379,19,96.464V139.287z" fill="#9C9E9B"/><path d="M18,235.609c0,0.86-0.896,1.558-2,1.558H2c-1.104,0-2-0.697-2-1.558v-33.968c0-0.86,0.896-1.558,2-1.558h14  c1.104,0,2,0.697,2,1.558V235.609z" fill="#464644"/><path d="M19,235.311c0,0.845-0.92,1.53-2.056,1.53H2.556c-1.135,0-2.056-0.685-2.056-1.53v-33.372  c0-0.845,0.92-1.531,2.056-1.531h14.389c1.135,0,2.056,0.686,2.056,1.531V235.311z" fill="#9C9E9B"/><path d="M18,335.668c0,1.104-0.896,1.999-2,1.999H2c-1.104,0-2-0.895-2-1.999v-43.586c0-1.104,0.896-1.999,2-1.999  h14c1.104,0,2,0.895,2,1.999V335.668z" fill="#464644"/><path d="M431,10c0,1.104-0.896,2-2,2h-79.833c-1.104,0-2-0.896-2-2V2c0-1.104,0.896-2,2-2H429c1.104,0,2,0.896,2,2  V10z" fill="#464644"/><path d="M430.167,12.667c0,1.104-0.896,2-2,2h-78.503c-1.104,0-2-0.896-2-2V2.693c0-1.104,0.896-2,2-2h78.503  c1.104,0,2,0.896,2,2V12.667z" fill="#959693"/><path d="M4.276,78.5c0-40.869,33.131-74,74-74h367.5c40.869,0,74,33.131,74,74V941c0,40.869-33.131,74-74,74h-367.5  c-40.869,0-74-33.131-74-74V78.5z" fill="#9A9C99"/><path d="M19,335.287c0,1.084-0.92,1.963-2.056,1.963H2.556c-1.135,0-2.056-0.879-2.056-1.963v-42.823  c0-1.084,0.92-1.964,2.056-1.964h14.389c1.135,0,2.056,0.879,2.056,1.964V335.287z" fill="#9C9E9B"/><path d="M6.526,78.333c0-39.765,32.235-72,72-72h367c39.765,0,72,32.235,72,72v862.666c0,39.765-32.235,72-72,72  h-367c-39.765,0-72-32.235-72-72V78.333z" fill="#E6E8E7"/><path d="M9.359,81.333c0-39.765,32.235-72,72-72h361.333c39.766,0,72,32.235,72,72v856.998c0,39.765-32.234,72-72,72  H81.359c-39.765,0-72-32.235-72-72V81.333z" fill="#0A0B0D"/><path d="M509.526,932c0,39.765-32.235,72-72,72h-351  c-39.765,0-72-32.235-72-72V85c0-39.765,32.235-72,72-72h351c39.765,0,72,32.235,72,72V932z" fill="none" stroke="#212322" stroke-miterlimit="10" stroke-width="2"/><path d="M38.025,179.333c0-3.313,2.686-6,6-6h436c3.313,0,6,2.687,6,6V836c0,3.313-2.687,6-6,6h-436  c-3.314,0-6-2.687-6-6V179.333z" fill="#524D61"/><circle cx="174.36" cy="93.383" fill="#2C2D2F" r="11.946"/><circle cx="174.36" cy="93.383" fill="#061F3B" r="5.241"/><path d="M310.901,94.054c0,5.924-5.061,10.726-11.301,10.726h-75.149c-6.241,0-11.301-4.802-11.301-10.726v-1.341  c0-5.924,5.06-10.726,11.301-10.726H299.6c6.24,0,11.301,4.802,11.301,10.726V94.054z" fill="#111111"/><path d="M309.913,93.383c0,5.702-4.87,10.324-10.877,10.324h-74.02c-6.008,0-10.876-4.622-10.876-10.324l0,0  c0-5.702,4.869-10.324,10.876-10.324h74.02C305.042,83.06,309.913,87.682,309.913,93.383L309.913,93.383z" fill="#171718"/><path d="M303.838,93.383c0,3.184-2.72,5.765-6.074,5.765h-71.477c-3.355,0-6.074-2.581-6.074-5.765l0,0  c0-3.184,2.719-5.765,6.074-5.765h71.477C301.119,87.618,303.838,90.199,303.838,93.383L303.838,93.383z" fill="#474647"/><circle cx="262.026" cy="922.834" fill="#0A0B0D" r="48.417" stroke="#323335" stroke-miterlimit="10"/><circle cx="261.933" cy="922.713" fill="#191D1D" r="46.528"/><path d="M277.179,934.921c0,2.157-1.753,3.909-3.911,3.909  h-22.484c-2.16,0-3.912-1.752-3.912-3.909v-23.138c0-2.159,1.752-3.91,3.912-3.91h22.484c2.158,0,3.911,1.751,3.911,3.91V934.921z" fill="none" stroke="#CCCCCC" stroke-miterlimit="10" stroke-width="3"/></svg>